<svg t="1754965019195" class="icon" viewBox="0 0 1212 1024" version="1.1" xmlns="http://www.w3.org/2000/svg" p-id="2604" width="200" height="200"><path d="M523.70637596 95.35004899c-1.63669333 1.21344-3.30496 2.37568-4.96128 3.56010667 0.69461333-0.44885333 1.38752-0.89941333 2.08469333-1.34485333 0.90026667-0.66048 1.81333333-1.31584 2.69994667-1.9968 0.05973333-0.08362667 0.11861333-0.14336 0.17664-0.21845334z m243.69408569 124.21034895L512.38093596 420.63475029c-1.29962667 5.55776-3.28192 8.91477333-8.18346781 13.37856 0.30293333 0.22528 0.60245333 0.45738667 0.90709334 0.6784 4.14890667 3.01824 8.77397333 5.3632 12.82133447 8.51626667 3.03445333 2.36373333 5.81973333 5.03296 8.72874667 7.54858667 4.5056 5.62261333 10.58389333 9.31072 15.86432 14.08341333 4.608 4.16426667 1.80053333 2.55744 5.13365333 4.22144114 2.77589333 4.21632 7.45301333 8.64768 8.3626678 13.80693333 1.49930667 2.2784 2.80490667 4.68053333 4.21034667 7.01866667l1.59232 3.56693333 275.81270016-217.48395236z m-497.50699918 111.36000341c-0.61696 0.41728-1.22794667 0.84224-1.82613334 1.28426667-0.01706667 0.16298667-0.04181333 0.31744-0.04778666 0.49834667 0.05632 0.05802667 0.09984 0.11093333 0.1536 0.16725333 0.83370667-0.50346667 1.66656-1.00693333 2.49856-1.51210667-0.25685333-0.14506667-0.50773333-0.28757333-0.77824-0.43776z m714.14188486 62.62613447L509.07170929 768.06515826c2.82965333 2.0992 0.76117333 0.47104 5.70709334 4.68650667 0.87381333 3.33226667 1.792 6.65344 2.66154666 9.98656 2.05482667 2.55573333 3.93557333 5.3248 6.35648 7.49312 0.78762667 0.70570667-0.03413333-1.34570667-1.04874666-3.35616-0.69973333-0.89258667-1.40288-1.78090667-2.17941334-2.60522667-0.37802667-1.91488 1.02656 0.31914667 2.17941334 2.60522667 0.37290667 0.47530667 0.74410667 0.95317333 1.1264 1.41994666 0.20906667 1.06581333 0.38826667 2.13845333 0.5632 3.21194667 0.21930667 0.15018667 0.45056 0.3072 0.71594666 0.47445447 2.59584 2.18026667 4.26325333 3.24266667 6.12010667 6.16533333 1.00010667 1.5744 1.80992 3.26229333 2.60949333 4.94933333 1.00864 0.48128 1.9968 0.99328 2.8928 1.65376 4.69674667 3.45429333 7.56736 7.18506667 10.41578667 11.712 1.50357333 0.90368 2.83050667 2.17258667 4.11989333 3.36213334 0.37973333 0.34986667 0.71338667 0.73984 1.03253334 1.14602666 3.35616 0.55296 6.016 1.66997333 10.1290678 5.02613334 2.45162667 0.47018667 4.87424 1.04533333 7.18848 1.95413333 0.81493333 0.31914667 1.53429333 0.88064 2.17514666 1.59488 0.36266667 0.01706667 0.64853333 0.04266667 0.96 0.06656l481.49846472-379.65483577z m-481.06838584 30.21141447c-0.12458667 0.10581333-0.24746667 0.21418667-0.37546667 0.31573334 0 0.93354667 0.02133333 2.24938667 0.05461333 3.90314666 0.08533333-1.37557333 0.17152-2.75285333 0.3456-4.1088-0.00938667-0.04864-0.01706667-0.064-0.0256-0.11008z m-6.84202667 4.02176c-0.0384 0.01962667-0.0768 0.04096-0.1152 0.05973334l0.06656 0.04864zM-26.78921103 456.16072363v0.00512l-0.69205333 0.32426666c-0.0512 0.0256-0.09386667 0.0512-0.13994667 0.0768 0.32768 0.01194667 0.62805333-0.04266667 0.82090667-0.23808 0.0512-0.0512 0.01194667-0.11093333 0.01194667-0.16810666z m-0.56576 0.88490666c-0.58026667 0.16896-0.81578667 0.3072 0.04266667 0.25685334-0.01706667-0.08533333-0.0256-0.17066667-0.04266667-0.256z m588.72833479 35.99701448c-0.01536 0.01194667-0.00853333 0.06826667 0.02986667 0.1792 0.04864 0.14506667 0.11605333 0.28330667 0.17066666 0.42581333l0.18090667-0.14336c-0.18176-0.25685333-0.34986667-0.48725333-0.38144-0.46165333z m-497.62646585 32.3447478c-0.13056 0.00853333-0.56746667 0.13056-0.75178666 0.16554666-0.15189333 0.02816-0.30293333 0.06058667-0.45482667 0.09130667 0.41728-0.00085333 0.86528-0.01962667 1.18442667-0.20650667 0.00853333-0.01706667 0.01450667-0.03413333 0.02133333-0.05034666z m324.38784797 148.76843008c-0.07850667 0.128-0.16384 0.25258667-0.2432 0.37973333-0.40618667 0.65706667-0.81834667 1.31328-1.22453333 1.97034667 1.55477333 0.02304 3.10869333 0.08277333 4.6592 0.1664z m116.82730894 92.12672228c-0.16128 0.20224-0.32853333 0.39850667-0.49066667 0.59989333 1.93536 3.24266667 3.46709333 6.86592 2.40554667 4.864-0.83626667-1.57866667-1.5872-3.24522667-2.4064-4.86058667-0.03925333 0.04949333-0.08021333 0.09728-0.12032 0.14677334l0.64853333 3.22304c0.01194667 0.05802667 0.01536 0.10154667 0.0256 0.15872 1.50698667 2.24512 3.0848 4.42453333 4.88533448 6.4 0.90368 0.22016 1.73226667 0.52309333 2.28352 0.87637333 0.27221333 0.17408 0.53333333 0.36010667 0.79189333 0.5504 0.07082667-1.43189333-0.40618667-4.00128-0.85674667-5.16352-0.704-1.81589333-2.19306667-3.18293333-3.49184-4.67029333l-0.48981333 0.38656z m0.06314667 4.13184c-0.51712-0.77141333-1.02229333-1.55392-1.53002667-2.33386667-0.20224 0.24746667-0.40192 0.49749333-0.60586667 0.74410667 0.41557333 0.80213333 0.97450667 1.91061333 1.81418667 3.51146666-0.02048-2.21866667 0.39168-0.62037333 0.81493333 2.0736 0.00853333 0.00256 0.01024 0.00768 0.01536 0.01109334-0.02048-1.04448-0.18688-2.37226667-0.50858666-4.0064z m-3.61216 5.1712a3.1488 3.1488 0 0 0-0.66816 0.04522666 14.72 14.72 0 0 1 2.04970666 1.96181334c0.20736 0.06314667 0.40704 0.11093333 0.59392 0.13653333-0.13397333-0.63061333-0.26965333-1.26122667-0.40704-1.89184-0.57770667-0.13653333-1.12128-0.23637333-1.56842666-0.25173333z m10.90389447 2.5472a6.22677333 6.22677333 0 0 0-1.04704 0.0896c0.28842667 0.28074667 0.58026667 0.55722667 0.88149333 0.82688 0.51797333 0.46336 0.75434667 0.09386667 0.8192-0.65194667-0.21333333-0.0896-0.41984-0.18090667-0.65365333-0.26453333z m1.14176 0.47616c1.28853333 1.02570667 2.42346667 2.23232 3.49098667 3.51829333-0.53674667-1.37728-1.51637333-2.57962667-3.49098667-3.51829333z m-2.13674667 1.37728c0.48298667 0.79189333 0.93696 1.60938667 1.4592 2.368 0.10752-0.69973333-0.49493333-1.53088-1.4592-2.368z m11.29813334 9.9072c-0.04010667 0.03669333 0.24149333 0.38912 0.91477333 0.93781333-0.43861333-0.57856-0.76544-0.88234667-0.87893333-0.93184-0.01792-0.00853333-0.02986667-0.01024-0.03584-0.00597333z m1.97802666 2.58901446c0.40789333 2.50453333 0.82602667 5.00736 1.54709334 7.43509334 0.38229333 1.29024 0.44202667-2.77333333-0.01962667-4.03626667-0.51456-1.40373333-1.04106667-2.52330667-1.52746667-3.39882667z m-2.0096 5.93322667c0 0.00597333 0.00853333 0.02901333 0.03328 0.07168 0.21845333 0.36864 0.4608 0.72704 0.69632 1.08714667-0.00853333-0.02986667-0.01365333-0.05717333-0.02133333-0.08704-0.09386667-0.33877333-0.69632-1.11445333-0.70826667-1.07178667z m-54.30869447 50.01984114c0.29866667 0.41130667 0.70144 0.73984 1.15541333 0.99669333-0.06997333-0.17578667-0.13994667-0.34304-0.20992-0.52309333 0-0.00085333 0-0.00341333-0.00853333-0.00597333h-0.01194667a13.4912 13.4912 0 0 1-0.92842666-0.46762667z m73.24330781 5.1968c-0.18090667 0.36096-0.37802667 0.72533333-0.57173334 1.08885333l0.93013334-0.73386666c-0.11946667-0.12117333-0.23722667-0.22784-0.3584-0.35498667z" fill="#1296db" p-id="2605"></path><path d="M576.16504376 65.94162119l-103.71498894 81.80906894-5.39818667 4.32981334 109.11317561 86.9973356 109.48864228-86.9973356-10.18197333-7.85066667z m258.97728683 207.96587122L575.89795043 478.32179143 316.92151693 274.14471907l-70.23104113 56.40960228L575.86893709 590.13406037l329.49419464-259.80757902c-0.49322667 0.00853333-0.60586667-0.19626667-1.25525334-0.81066666l-0.06826666-0.06741334c-0.08533333-0.04266667-0.16384-0.08789333-0.24746667-0.128 0.00170667 0.00768 0 0.0256 0 0.04181334 0.00170667 0.01706667-0.03328 0-0.03328-0.00853334-0.14250667-0.1408-0.30634667-0.26965333-0.40533333-0.44458666-0.06826667-0.12117333-0.05973333-0.1792-0.08874667-0.26624h-0.01706667c-0.00853333-0.00853333-0.00426667-0.03413333-0.01706666-0.0512l-7.55285334-6.06037448-0.32682666-0.25685333c-0.28330667-0.16810667-0.58794667-0.3072-0.84053334-0.52394667-0.15701333-0.14506667-0.32256-0.28330667-0.4736-0.4352-0.03413333-0.0256-0.0256-0.08448-0.03413333-0.128l-0.15786667-0.11946666-0.00853333-0.00768c-0.08448-0.07594667-0.1792-0.12117333-0.26624-0.18773334-0.06826667-0.0512-0.11861333-0.13397333-0.19797333-0.16810666-0.1664-0.06826667-0.34816-0.09130667-0.52394667-0.13824-0.23893333-0.14677333-0.49664-0.27648-0.72192-0.44458667-0.1024-0.0768-0.17322667-0.19029333-0.25685333-0.28757333-0.11690667-0.13397333-0.23381333-0.26624-0.34645334-0.40533334-0.03413333-0.05034667-0.04266667-0.13738667-0.09898666-0.17749333-0.06741333-0.0512-0.14506667-0.06826667-0.2176-0.10837333-0.23978667-0.12032-0.52309333-0.17237333-0.75093334-0.31573334-0.5888-0.37290667-0.55978667-0.27989333-0.6528-0.61354666-0.01706667-0.04266667 0.00256-0.11093333-0.04266666-0.13738667-0.12544-0.09386667-0.28330667-0.13994667-0.42496-0.20736-0.21674667-0.13653333-0.44117333-0.26112-0.6528-0.40533333-0.11946667-0.08533333-0.20138667-0.20906667-0.31573334-0.29696-0.29013333-0.21930667-0.64597333-0.38741333-0.86101333-0.69290667-0.45226667-0.46762667-1.08202667-0.74581333-1.61109333-1.11701333-0.63829333-0.38229333-1.28-0.75605333-1.71008-1.38410667-0.41130667-0.42069333-1.02229333-0.55296-1.41397334-0.9984-0.27136-0.26453333-0.63146667-0.43093333-0.93866666-0.65194667a6.89322667 6.89322667 0 0 1-0.71253334-0.61269333c-0.01706667-0.01706667 0.03413333 0.00426667 0.05973334 0.00768 0.2432-0.06826667 0.07594667-0.00853333-0.28586667-0.128-0.59562667-0.19626667-1.01888-0.45056-1.49333447-0.86101333-0.05973333-0.0512-0.09813333-0.11008-0.14762667-0.16810667-0.0768-0.08789333-0.27904-0.38912-0.39509333-0.48384-0.26624-0.21589333-0.6016-0.34389333-0.89002667-0.52394667-0.33621333-0.21418667-0.512-0.30805333-0.79104-0.5632a7.36 7.36 0 0 1-0.46506667-0.45482666c-0.0256-0.0256-0.05973333-0.06826667-0.0512-0.09898667 0.01706667-0.04266667 0.16896-0.04266667 0.12885334-0.05973333-0.16810667-0.09045333-0.3712-0.11093333-0.55296-0.16810667-0.06826667-0.06826667-1.21173333-0.83626667-0.68266667-0.84992 0.12202667-0.00256 0.4864 0.00682667 0.36693333-0.00853333-0.18005333-0.0256-0.36096-0.01706667-0.54442666-0.01706667-0.24576-0.11093333-0.50517333-0.2048-0.74069334-0.33536-0.18602667-0.10325333-0.6016-0.59477333-0.75178666-0.77141333-0.09386667-0.12544-0.14506667-0.20053333-0.13824-0.20736 0.03413333-0.0256 0.13909333 0.0256 0.10837333 0-0.06741333-0.0512-0.15957333-0.05973333-0.23637333-0.08874667-0.39594667-0.16213333-0.35328-0.15104-0.72192-0.35584-0.1792-0.13824-0.36352-0.26794667-0.53418667-0.41557333-0.21333333-0.18432-0.41813333-0.48469333-0.59306667-0.71168-0.0512-0.06826667-0.0768-0.14250667-0.13909333-0.19797334-0.0512-0.04266667-0.11946667-0.06826667-0.1792-0.09984-0.36693333-0.19541333-0.13312-0.09130667-0.72106667-0.26624-0.54442667-0.27306667-0.86528-0.59392-1.216-1.05813333-0.45738667-0.37546667 0.18176 0.11946667-0.62293333-0.37546667-1.04618667-0.64256-0.45397333-0.22869333-0.74154667-0.5632-0.04266667-0.0512-0.08533333-0.10752-0.13824-0.14848-0.0768-0.05973333-0.16469333-0.09813333-0.24746666-0.14762666-0.38314667-0.22186667-0.7424-0.40192-1.08714667-0.69290667-0.48213333-0.40618667 0.0256 0.00085333-0.15872-0.21674667-0.01706667-0.01706667-0.04266667-0.0256-0.05888-0.04266666-0.13312-0.0768-0.47872-0.2816-0.52394667-0.32682667-0.14592-0.14933333-0.256-0.33194667-0.37546666-0.50346667-0.47104-0.19626667-0.92842667-0.44202667-1.216-0.88064-0.09130667-0.14677333-0.00853333-0.03413333-0.38570667-0.19797333-0.25429333-0.37290667-0.31061333-0.8576-0.58368-1.216v-0.00853333l-0.00853333-0.00768c0.00170667 0.00853333 0.00341333 0.0256 0 0.01706666-0.09045333-0.07594667 0.00853333 0.36864 0.05973333 0.54442667 0.0256 0.08448 0.24490667 0.15616 0.16896 0.19797333-0.0768 0.04266667-0.12544-0.12544-0.18773333-0.18773333-0.15872-0.17408-0.29013333-0.31914667-0.4352-0.49493333-0.01706667-0.0256-0.08874667-0.06741333-0.05973334-0.06741334h-0.03413333c-0.18005333-0.10410667-0.3712-0.19882667-0.54357333-0.31573333-0.26538667-0.18176-0.47616-0.576-0.77056-0.7424-0.19712-0.18261333-0.30208-0.25856-0.44544-0.46421333a3.62325333 3.62325333 0 0 1-0.16810667-0.26624c-0.01706667-0.0256-0.04266667-0.11264-0.0512-0.12885334-0.0512-0.05973333-0.11093333-0.09386667-0.16810667-0.13909333 0.00853333 0.04266667 0.04266667 0.09130667 0.05973334 0.13909333 0.00426667 0.01706667-0.03413333-0.00853333-0.0512-0.01706666 0.26282667 0.30464-0.03413333-0.10069333-0.29610667-0.40533334-0.15701333-0.03413333-0.31573333-0.01706667-0.61269333-0.16810666-0.09386667-0.04266667-0.12629333-0.14421333-0.18773334-0.2176-0.30293333 0.03413333-0.71765333 0.09130667-0.90026666-0.17749334-0.03413333-0.04266667-0.01706667-0.1024-0.03413334-0.14848-0.0256-0.00853333-0.05034667-0.00853333-0.07594666-0.01706666-0.60245333-0.2176-0.67754667-0.25344-0.85930667-0.47445334-0.17408 0.22869333-0.33621333 0.00682667-0.50346667-0.38570666 0 0-0.00512-0.01706667-0.01706666-0.01706667-0.00853333-0.01706667-0.0512-0.0512-0.0512-0.05973333 0.17152 0.0256-0.10410667-0.00768-0.13824-0.04266667-0.06826667-0.05888-0.09728-0.14506667-0.14848-0.21674667-0.05973333-0.01706667-0.06826667-0.01706667-0.10922667-0.03413333-0.05973333-0.09813333-0.13056-0.19456-0.18773333-0.29610667-0.03413333-0.0256-0.08533333-0.04266667-0.11861334-0.06826666-0.0256-0.0256-0.00426667-0.05034667-0.03413333-0.09813334-0.0512-0.0256-0.10496-0.0256-0.14762667-0.05973333-0.0768-0.0512-0.05973333-0.13994667-0.0768-0.25685333-0.1536-0.24405333-0.26282667-0.37888-0.24661333-0.28757334 0.00853333 0.0256 0.04266667 0.04266667 0.0512 0.06826667 0.00170667 0.0256-0.04266667-0.04266667-0.0512-0.0512 0.00853333 0.04266667 0.00853333 0.0512 0.03413333 0.17834667 0.06741333 0.09386667 0.22698667 0.17066667 0.20736 0.28672-0.01706667 0.10752-0.17066667-0.14933333-0.2176-0.24746667-0.04266667-0.08448-0.06826667-0.16896-0.08874666-0.25685333-0.67754667-0.23296-1.49162667-0.55637333-0.8704-0.91989334-0.05973333-0.06826667-0.11605333-0.13994667-0.18773334-0.19797333-0.0256-0.01706667-0.37376-0.20906667-0.40533333-0.22784-0.15957333-0.09386667-0.49066667-0.29610667-0.67242667-0.40533333-0.67157333-0.72789333-0.66133333-0.7168-0.60245333-0.67157334a1.79541333 1.79541333 0 0 0-0.22613333-0.15872c-0.11093333-0.05888-0.23210667-0.10496-0.34730667-0.15786666-0.86186667-0.39424-1.78176-0.74496-2.45162667-1.44298667-0.10496-0.13738667-0.56746667-0.41386667-0.70144-0.52394667-0.04266667-0.03413333-0.08533333-0.05973333-0.10922666-0.09898666-0.00853333-0.01706667 0.04266667-0.05973333 0.01706666-0.06826667-0.09557333-0.05973333-0.21333333-0.06826667-0.31658666-0.10837333-0.36693333-0.27050667-0.68864-0.40618667-0.85077334-0.82090667-0.00768-0.0256 0.04266667 0.04266667 0.06826667 0.0512 0.05973333 0.0256 0.24490667 0.09642667 0.18773333 0.05973333-0.11946667-0.0768-0.25770667-0.12544-0.38570666-0.18773333-0.18944-0.18688-0.384-0.36778667-0.5632-0.56405333-0.0256-0.0256-0.09642667-0.19626667-0.11946667-0.23722667-0.09216-0.15957333-0.128-0.14933333-0.2176-0.34645333-0.00512-0.01706667 0.04266667 0.01706667 0.05973333 0.03413333 0.05973333 0.01706667 0.22869333 0.08533333 0.17749334 0.0512-0.12544-0.08704-0.29269333-0.10666667-0.40533334-0.20736-0.21333333-0.19285333-0.38144-0.42837333-0.5632-0.6528-0.01706667-0.01706667-0.04266667-0.06826667-0.01706666-0.05973333 0.04266667 0.00853333 0.06826667 0.05973333 0.10837333 0.0768 0.0256 0.00853333-0.04266667-0.04266667-0.05973333-0.05973334-0.29610667-0.27648-0.6016-0.55210667-0.83968-0.87893333-0.24917333-0.15957333-0.45056-0.32-0.34645334-0.46506667 0.01706667 0.00682667 0.04266667 0.01706667 0.05973334 0.01706667-0.3072-0.15616-0.4224-0.22442667-0.6528-0.42496-0.0768-0.06826667-0.15104-0.12970667-0.22784-0.19797333-0.19370667-0.19626667-0.33621333-0.41386667-0.49493334-0.62293334-0.44373333-0.24149333-0.90453333-0.48810667-1.10677333-0.98901333-0.01706667-0.17749333-0.1792-0.23893333-0.32597333-0.32512-0.1152-0.0768-0.23381333-0.16469333-0.34645334-0.24746667-0.0256-0.01706667 0.05973333 0.04266667 0.08874667 0.0512 0.01706667 0.00512 0.0768 0.00768 0.05973333 0-0.43946667-0.17493333-0.89088-0.27221333-1.11786666-0.79189333-0.04266667-0.09130667-0.10069333-0.17066667-0.128-0.26624-0.00597333-0.0256 0.03413333 0.03413333 0.05973333 0.04266667 0.08704 0.04181333 0.18432 0.06741333 0.27562667 0.09898666 0.0512 0.01706667-0.11093333-0.01706667-0.13824-0.05973333-0.00853333-0.0256 0.08618667-0.00682667 0.06826666-0.03413333-0.20821333-0.26709333-0.43861333-0.51797333-0.66304-0.77056114l-0.13909333-0.11861334h-0.01706667c-0.08704 0.00853333-0.17322667-0.00853333-0.26624 0 0.00426667 0.06826667 0.04266667 0.39850667 0.0512 0.35669334 0.00512-0.09557333 0.06741333-0.2816 0.41386667 0.24746666 0.05973333 0.08874667-0.20650667-0.09045333-0.29610667-0.14848-0.05973333-0.03413333-0.06826667-0.06826667-0.11861333-0.09898666-0.16384-0.10581333-0.29866667-0.19797333-0.40533333-0.34645334-0.01706667-0.00597333-0.03413333 0.00682667-0.04266667 0-0.33877333-0.20736-0.43690667-0.67413333-0.74069333-0.93013333-0.12458667-0.10325333 0.0768 0.26624 0.19797333 0.44629333 0.00597333 0.05034667-0.0256 0.05888 0.32682667 0.22698667-0.1024-0.05973333-0.23466667-0.08448-0.30549334-0.17749333-0.01706667-0.01706667-0.00256-0.03413333-0.01706666-0.0512-0.00426667-0.05034667-0.25856-0.39253333-0.38570667-0.68181334-0.0512-0.00170667-0.06826667 0.00256-0.09813333 0-0.00853333 0-0.03413333 0.00256-0.0768-0.01706666 0.05973333 0.09557333 0.12202667 0.18517333 0.16896 0.28757333 0.05973333 0.12544-0.42666667-0.57429333-0.26624-0.31658667-0.03413333-0.05973333 0.04266667 0 0.09898666 0.03413334a0.256 0.256 0 0 1-0.04266666-0.05973334c-0.16725333 0.03413333-0.16810667 0.06826667-0.82090667-0.57344-0.00853333-0.04266667-0.05973333-0.0768-0.05973333-0.11946666 0-0.00682667 0.0512-0.00682667 0.0512-0.01621334-0.0512-0.10837333-0.19370667-0.16384-0.25685334-0.26624-0.20565333-0.14933333-0.41813333-0.31232-0.5632-0.52394666-0.01706667-0.0256-0.04266667-0.0512-0.05973333-0.0768z m5.41696 4.36906666l-0.27648-0.23722666c0.00597333 0.04266667 0.0256 0.18261333 0.03413333 0.22784a0.896 0.896 0 0 1 0.24746667 0.00853333z m63.54773447 51.24010895c0.1536 0.12970667 0.31232 0.26282667 0.49493333 0.3456 0.06826667 0.03413333 0.15530667 0.01706667 0.2176 0.00853333l-0.13909333-0.11946666c-0.18773333-0.09728-0.37888-0.18858667-0.57258667-0.27648 0.00512 0.00853333-0.00853333 0.03413333 0 0.04266666z m-65.36618781-52.72320228c0.00426667 0.09216-0.01706667 0.128 0 0.18773333 0.00512 0.0256 0.03413333 0.04266667 0.04266667 0.05973334 0.0256-0.00597333 0.128 0.01706667 0.17834667 0.01706666-0.0256-0.0512-0.05973333-0.11690667-0.06826667-0.14848z m0.2176 0.26709333c0.00768 0.0256 0.01706667 0.04266667 0.03413334 0.05888 0.07594667 0.00256 0.06741333-0.00853333 0.14762666-0.00853333l-0.0512-0.04181333c-0.01706667 0.00426667-0.09216-0.00853333-0.128-0.00853334z m16.43008 14.03733448c-0.09557333 0.03413333-0.24064 0.05973333-0.29610666 0.0896 0.0768 0.09386667 0.15018667 0.18688 0.24746666 0.25685333 0.12117333 0.13226667 0.3072 0.31744 0.49493334 0.48384-0.05973333-0.13056-0.11093333-0.26538667-0.16896-0.39509333-0.03413333-0.04266667-0.04266667-0.0512-0.05973334-0.07594667-0.01706667-0.01706667-0.00085333-0.0256-0.01706666-0.0512-0.00768-0.04181333-0.07594667-0.14336-0.07594667-0.18773333-0.04266667-0.04266667-0.08448-0.07594667-0.128-0.11776z m0.40533334 0.55466666c-0.03413333-0.08533333 0.01706667 0.18261333 0.0512 0.26624 0.01706667 0.04266667 0.04266667 0.06741333 0.0768 0.09898667-0.03413333-0.12458667-0.0768-0.24746667-0.12970667-0.36608z m0.41472 0.58197334c-0.03413333-0.04266667 0.04266667 0.09728 0.0512 0.17834666 0.04266667 0.07594667 0.1408 0.15189333 0.20736 0.23637334-0.00256-0.00768 0.00170667-0.00768 0-0.01706667-0.08533333-0.13397333-0.15189333-0.27904-0.25770667-0.39509333z m0.25770666 0.39594666c0.00853333 0.01706667 0.01706667 0.03413333 0.03413334 0.05034667 0.01706667 0.0256 0.04266667 0.04266667 0.05973333 0.06826667 0.02474667 0.00768 0.05034667 0.01706667 0.07509333 0.03328-0.06826667-0.11264-0.12970667-0.22186667-0.2176-0.31658667-0.03413333-0.04266667 0.03413333 0.08533333 0.0512 0.16810667z m0.08874667 0.11776c-0.00597333-0.00170667-0.00853333 0.00256-0.01706667 0 0.03413333 0.0512 0.06826667 0.09642667 0.09898667 0.14848 0.04266667 0.0256 0.06826667 0.0512 0.10837333 0.06826667-0.08533333-0.0768-0.11946667-0.13994667-0.18773333-0.21845333z m3.97397333 2.42261334l0.03413334 0.03413333c-0.00597333-0.00768-0.00256-0.0256-0.01706667-0.03413333-0.00512-0.00170667-0.00853333 0-0.01706667 0z m191.24736456 152.72192341l-475.87841138 375.2473691-475.58145138-375.0400091-70.26090894 56.43946781 545.84321365 430.3829447 545.20918699-429.89825137c-0.10496-0.07594667-0.21162667-0.15445333-0.31573334-0.23722667-0.0512-0.04266667 0.09472 0.0512 0.04096-0.00853333-0.14250667-0.07594667-0.2816-0.1536-0.42496-0.22698667-0.15701333-0.17664-0.31232-0.34474667-0.46506666-0.52394666-0.01365333-0.01706667 0.19370667 0.16384 0.01706666-0.05973334-0.2304-0.22016-0.51882667-0.37632-0.76117333-0.58282666-0.03413333-0.03413333 0.07509333 0.04266667 0.11776 0.06826666h0.04181333a2.29888 2.29888 0 0 1-0.84992-0.47530666c-0.28842667-0.29013333-0.33706667-0.38997333-0.38570666-0.51370667l-0.01706667-0.00853333c-0.0512-0.03328-0.09130667-0.09216-0.13738667-0.13653334-0.04266667-0.0256-0.0768-0.04266667-0.11946666-0.06826666-0.13909333-0.0512-0.29610667-0.05973333-0.40533334-0.15872-0.05034667-0.04266667-0.09216-0.10581333-0.13909333-0.15786667a2.19733333 2.19733333 0 0 1-0.52309333-0.44544 6.95893333 6.95893333 0 0 1-1.44384-0.73216c-0.15018667-0.17408-0.31402667-0.34133333-0.45482667-0.52309333-0.01365333-0.0256-0.05888-0.08789333-0.03242667-0.0896 0.08618667-0.00512 0.30378667 0.14506667 0.25685334 0.06826666-0.04949333-0.08704-0.19626667-0.0768-0.28586667-0.11861333-0.4096-0.20821333-0.45056-0.25173333-0.82090667-0.50432-0.1792-0.13568-0.35925333-0.26453333-0.53333446-0.40533333-0.47530667-0.384-0.80896-0.93354667-1.24586667-1.35424-0.04266667-0.0512-0.08874667-0.11093333-0.13909333-0.15872a5.24629333 5.24629333 0 0 1-0.53418667-0.31573334c-0.44714667-0.25685333-0.896-0.56149333-1.15626667-1.00864-0.04266667 0-0.2304-0.00597333-0.0768 0-0.02474667-0.0512-0.04181333-0.09898667-0.06656-0.14848-0.0256-0.0768 0.01365333-0.05973333-0.27733333-0.24746666a5.07221333 5.07221333 0 0 1-1.14688-1.02741334c-0.11605333-0.13568-0.26538667-0.24149333-0.33536-0.40533333v-0.00853333c-0.03413333-0.03413333-0.06741333-0.05973333-0.09898667-0.08874667-0.12458667-0.05973333-0.29184-0.1024-0.37546666-0.13738667-0.33536-0.13141333-0.50432-0.16213333-0.77141334-0.40618666a3.65824 3.65824 0 0 1-0.38570666-0.42410667c-0.08618667-0.10922667 0.21077333-0.04266667 0.13824-0.08874667-0.13312-0.08533333-0.29696-0.10581333-0.44458667-0.15872-0.21504-0.13141333-0.43690667-0.25088-0.64256-0.39509333a0.73642667 0.73642667 0 0 1-0.18773333-0.18773333c-0.01706667-0.0256 0-0.06826667-0.01706667-0.08874667-0.10922667-0.0768-0.24234667-0.10752-0.35584-0.17834667-0.36522667-0.22528-0.40874667-0.29354667-0.67242667-0.5632-0.30549333-0.29269333-0.62805333-0.52650667-0.94890666-0.80042666-0.03328-0.0256-0.04266667-0.10325333-0.0768-0.11861334-0.15274667-0.0768-0.32426667-0.11861333-0.48384-0.1792-0.22528-0.16725333-0.45568-0.32256-0.67157334-0.50346666a0.32256 0.32256 0 0 1-0.08874666-0.13824c0-0.0256 0.07509333-0.03413333 0.05973333-0.0512-0.13056-0.1024-0.3072-0.1408-0.4352-0.24661334-0.45738667-0.37802667-0.44032-0.39509333-0.63317333-0.77056 0.01365333-0.0256-0.01365333-0.05973333 0.01365333-0.06826666-0.23722667-0.1792-0.4736-0.36266667-0.71168-0.54272 0-0.00512-0.01706667-0.00597333-0.01706667-0.00853334-0.04266667-0.03413333-0.26453333-0.11861333-0.28586666-0.128-0.50261333-0.20309333-0.86101333-0.63317333-1.20661334-1.02826666-0.05973333-0.06826667-0.0896-0.15957333-0.16810666-0.19882667-0.04266667-0.01706667 0.01706667 0.08704 0.03413333 0.12885333-0.73045333 0.01706667-1.45664-1.09482667-1.80906667-1.64096-0.21418667-0.40618667-0.5888-0.70144-0.93013333-0.9984-0.04181333-0.04266667-0.09898667-0.06826667-0.13653333-0.11861333-0.12970667-0.15957333-0.23722667-0.33706667-0.35669334-0.50346667-0.1664-0.41813333-0.14421333-0.31317333-0.10752-0.23808 0-0.00512 0-0.01706667-0.01450666-0.01706666 0 0.01706667-0.03413333-0.05888-0.01706667-0.04181334a5.58250667 5.58250667 0 0 1-1.14688-0.70144c-0.66304-0.3584-0.25941333-0.05973333-0.95829333-0.80042666-0.16042667-0.36949333 0.04181333-0.13653333-0.26709334-0.39509334-0.41386667-0.29781333-0.42154667-0.32682667-0.64170666-0.53418666-0.01706667-0.00853333-0.0256-0.00853333-0.04266667-0.01706667-0.09813333-0.06826667-0.19968-0.1536-0.30634667-0.10837333-0.57429333-0.26453333-1.08544-0.64-1.42336-1.18613334-0.41130667-0.18261333-0.69546667-0.37888-0.84053333-0.59306666-0.05888-0.03413333-0.10752-0.0512-0.15786667-0.0768-0.1536-0.09557333-0.29866667-0.21077333-0.44544-0.31573334-0.01365333-0.01706667-0.0256-0.04266667-0.04266666-0.05973333-0.04096-0.0256-0.26624-0.17578667-0.34645334-0.22784-0.01365333-0.00085333-0.01706667-0.00853333-0.03413333-0.00853333-0.33024-0.04181333-0.22528 0.01706667-1.05728-0.67157334-0.128-0.06741333-0.29525333-0.10496-0.39509333-0.23637333-0.03413333-0.04266667-0.05034667-0.0768-0.07594667-0.11861333-0.20650667-0.00853333-0.24234667-0.0512-1.01802667-0.69205334-0.01365333-0.04266667 0-0.00597333 0-0.03413333-0.12288-0.06826667-0.24149333-0.13909333-0.36693333-0.20736-0.04096-0.04266667-0.76288-0.73301333-0.75093333-0.7808 0-0.01706667 0.03413333 0.00512 0.0512 0.00853333 0.19370667 0.08362667 0.52565333 0.02474667 0.63232-0.01706666-0.01706667-0.00853333-0.01706667 0-0.01706667-0.00853334-0.29866667-0.0256-0.61952 0.03413333-0.89941333-0.06826666-0.20992-0.07594667-0.29610667-0.33536-0.44458667-0.50346667 0.08618667 0.00682667 0.0256-0.00170667 0.19797333 0.05888-0.15957333-0.08704-0.35498667-0.18176-0.50432-0.27648-0.01706667-0.00853333 0.04181333 0.01706667 0.06656 0.01706667 0.08704 0.01706667 0.33706667 0.07594667 0.25770667 0.04266666-1.01717333-0.46165333-0.42666667 0.05888-1.08714667-0.69290666-0.01450667-0.0256-0.13909333-0.0256-0.19882666-0.0768-0.07509333-0.05034667-0.16384-0.10752-0.23722667-0.16810667a7.93344 7.93344 0 0 1-0.75093333-0.81066667c-0.01450667-0.00426667-0.01706667-0.00512-0.03413334-0.00768-0.1536-0.05973333-0.5632-0.64170667-0.7424-0.75093333-0.06656-0.06826667-0.11946667-0.14506667-0.18773333-0.20821333-0.01365333-0.00170667 0.00085333 0.00853333-0.13824-0.07594667-1.01632-0.65792 0.31914667 0.06826667-0.55296-0.33536-0.49664-0.33792-0.66389333-0.42325333-0.86016-0.86016l-0.01450667-0.00853333v-0.00853334c-0.01706667-0.00341333-0.01706667 0-0.03413333-0.00682666-0.13226667-0.10069333-0.27562667-0.20053333-0.40448-0.3072-0.04266667-0.03328-0.08533333-0.06741333-0.10837333-0.11776 0-0.00853333 0.01450667-0.01706667 0.01706666-0.03413334-0.0256-0.0256-0.06741333-0.0256-0.07594666-0.05973333-0.24064-0.1152-0.55210667-0.13824-0.70144-0.40448-0.18090667-0.1792-0.34816-0.37546667-0.53418667-0.55381333h-0.01365333v-0.00853334c-0.20992-0.20224-0.43690667-0.39082667-0.61354667-0.62293333-0.01365333-0.01706667-0.01365333-0.02474667-0.03413333-0.05034667-0.04949333-0.04266667-0.13994667-0.06741333-0.20650667-0.14762666-0.04266667-0.04266667-0.06741333-0.0768-0.09813333-0.11861334-0.29866667-0.0768-0.68266667-0.15104-0.68266667-0.29696-0.17834667-0.22016-0.3584-0.43008-0.53333333-0.6528 0-0.00682667 0.01706667-0.00085333 0.03413333 0 0.01365333-0.01706667 0.03328-0.0256 0.01621333-0.04266666-0.0256-0.05034667-0.08448-0.08448-0.11946666-0.128-0.01706667-0.0256-0.01706667-0.06826667-0.05034667-0.08874667-0.07509333-0.0512-0.17322667-0.0768-0.25685333-0.11861333-0.15018667-0.1024-0.27818667-0.22016-0.41472-0.32597334-0.10837333-0.07594667-0.20736-0.1664-0.29610667-0.24746666-0.10837333-0.09216-0.22954667-0.16554667-0.33621333-0.26624-0.12373333-0.12629333-0.18858667-0.2688-0.28586667-0.39509334-0.12458667-0.11349333-0.25173333-0.22528-0.36693333-0.3456-0.01365333-0.01706667-0.06741333-0.13056-0.10752-0.19882666a4.53461333 4.53461333 0 0 1-0.60330667-0.37546781c-0.03413333-0.00682667-0.03413333-0.00853333-0.05973333-0.01706667-0.01621333-0.00512-0.01621333-0.00853333-0.03328-0.01706666a0.23552 0.23552 0 0 1-0.06741334-0.03413334 4.46976 4.46976 0 0 1-0.87893333-0.52309333c-0.05973333-0.04266667-0.08533333-0.13397333-0.14848-0.16896-0.14421333-0.07594667-0.30549333-0.11690667-0.45482667-0.17749333-0.18261333-0.16725333-0.36096-0.33706667-0.54357333-0.50346667 0.05888 0.02474667 0.25685333 0.05888 0.19797333 0.03328-0.08448-0.04266667-0.17664-0.05973333-0.26709333-0.08874667-0.33706667-0.10325333-0.70144-0.16981333-0.90965333-0.53418666 0.01706667-0.00256 0.56490667 0.16810667 0.38656 0.08874666-0.21418667-0.09472-1.07605333-0.21333333-1.05813334-0.66218666 0.05888 0.00768 0.12288 0.0256 0.18773334 0.03413333-0.27989333-0.31061333-0.44373333-0.72106667-0.72192-1.03850667l-0.01706667-0.00853333c-0.05888-0.05034667-0.01365333 0.19968 0.01706667 0.28757333 0.08874667 0.23978667 0.38485333 0.5504 0.11776 0.25685334-0.27306667-0.33877333 0.01706667-0.1152-0.59306667-0.44458667-0.11605333-0.24746667-0.23381333-0.49322667-0.34645333-0.7424l-0.22613334-0.18773333v0.01706666c0.20224 0.55552 0.44032 0.52309333 0.08789334 0.3072-0.20906667-0.16896-0.32682667-0.24149333-0.47360114-0.47530666-0.0512-0.08533333-0.09301333-0.17578667-0.13909334-0.26624l-11.03274666-8.8576c-0.23466667-0.08533333-0.28245333-0.13653333-0.63317334-0.20821334 0.01450667-0.08448-0.01365333-0.17749333 0.03413334-0.24746666 0.01365333-0.01706667 0-0.01706667 0.01365333-0.01706667l-0.18773333-0.14762667c-0.06741333-0.0512-0.13653333-0.04266667-0.20736-0.10922666-0.04266667-0.04266667-0.06741333-0.09813333-0.10752-0.14762667l-0.51456-0.41557333a1.10336 1.10336 0 0 1-0.2176-0.17749334z m21.23605447 17.19210667c0.01706667 0.00682667 0.04181333 0.00853333 0.05888 0.01706666-0.04266667-0.03413333-0.08448-0.0512-0.13909333-0.08874666-0.0256-0.01706667 0.04266667 0.03413333 0.07594666 0.06741333z m0.05888 0.01706666c0.01365333 0.00682667 0.01706667 0.00768 0.03328 0.01706667 0.01706667 0.00512 0.05034667 0.01706667 0.05034667 0.00768-0.0256-0.01706667-0.05034667-0.01706667-0.07594667-0.03413333z m15.98549333 13.44512114c0.04266667 0.01706667 0.06741333 0.03413333 0.10752 0.04266667 0.04266667 0.00768 0.17066667 0.00768 0.12885334 0-0.18176-0.04266667-0.14933333-0.0256-0.23722667-0.04266667z m3.5584 2.57024c0.01706667 0.00682667 0.01706667 0.00085333 0.04266667 0.00853334-0.06741333-0.06826667-0.04266667-0.01706667-0.19797333-0.15872-0.0512-0.04266667 0.09898667 0.11093333 0.15786666 0.14762666z m-4.88362666-3.57888c0.03413333 0.00853333 0.0512 0.03413333 0.0768 0.04266667 0.04096 0.00682667 0.18517333-0.00853333 0.13824-0.01706667-0.16469333-0.0256-0.12373333-0.01706667-0.2176-0.01706666z m1.90890666 0.86016c0.12714667 0.80384 0.06656 0.48469333 0.38570667 0.7808-0.08874667-0.14250667-0.18944-0.37888-0.32597333-0.73216l-0.03413334-0.01706666c-0.01706667-0.00768-0.01706667-0.01706667-0.03328-0.03413334z m1.28512 1.45322667c0.0256 0.0256 0.05888 0.04266667 0.08789334 0.05973333 0.01706667 0.00768 0.0896 0.01706667 0.06741333 0.00768-0.0896-0.04266667-0.08874667-0.03413333-0.15872-0.06826666z" fill="#1296db" p-id="2606"></path><path d="M667.95213937 60.17735453c-0.01706667 0-0.04266667 0.08362667-0.05973333 0.11776 0.77226667 1.24245333 1.55562667 2.47978667 2.304 3.73845333 0.16554667 0.34730667 0.3584 0.67669333 0.53418667 1.01802667 0.03413333 0 0.06826667 0.08533333 0.10837333 0.08533333 0.12970667-0.24490667 0.28245333-0.46592 0.39509333-0.71168-1.08544-1.41909333-2.16490667-2.84501333-3.28192-4.24789333z m38.8317878 66.64277446c-0.19029333 0.09386667-0.39424 0.14421333-0.62293333 0.12714667 0.61610667 0.65109333 1.19210667 1.34826667 1.76981333 2.03605333-0.34389333-0.59221333-0.7296-1.16650667-1.01888-1.78944-0.03413333-0.08533333-0.0896-0.27904-0.128-0.37205333z m-23.22773446 20.97152114l-0.20906667 0.8448c0.33024 0.75093333 0.63146667 1.51893333 1.09226667 2.19221334 0.21930667 0.32170667 0.77056 0.84565333 1.26464 1.33461333-0.01706667 0-0.02474667 0.00170667-0.05034667-0.08277333-0.73813333-1.40714667-1.41653333-2.84842667-2.09834667-4.28885334z m-300.67030016 75.05237448l-70.23189562 56.40960227 301.41184797 237.68320569c0.91648-0.64597333 2.00192-1.29450667 3.33482667-2.03946667 0.28928-0.60074667 0.6016-1.18698667 1.00522666-1.71690667a38.29162781 38.29162781 0 0 1 2.78272-3.29216113c-0.27904-0.88234667-0.43434667-1.72373333-0.38314666-2.38592 0.01024-0.13568 0.0256-0.25088 0.03669333-0.384a31.16117447 31.16117447 0 0 1-2.57706667-2.79637333c-1.75530667-2.17258667 2.20586667-5.13365333 3.30922667-7.69962667 0.46165333-0.25685333 1.09994667-0.63829333 1.64437333-0.95658667 1.58976-3.58570667 3.64885333-4.67029333 5.57226667-5.8112a98.40810894 98.40810894 0 0 1 3.49952-2.73578666c0.28245333-0.32768 0.55552-0.66474667 0.84650667-0.98474667 2.83904-3.13002667 16.44458667-15.40352 18.1188278-16.85845333 0.19626667-0.17066667 0.33109333-0.27904 0.51626667-0.43861334l0.04864-0.05632c11.95776-13.77024 8.69034667-9.73226667 11.53365333-12.5482678-0.63573333-1.05216-1.37898667-2.05397333-1.73738666-3.22048-1.58122667-5.1456-2.10602667-7.98549333-1.79797334-11.49781334-1.62048 0.28586667-3.19232 0.39765333-3.43893333 0.19626667a74.65898894 74.65898894 0 0 1-3.56096-3.1232c-0.11349333-0.02645333-0.2304-0.05290667-0.32853333-0.08192-1.88757333 0.08874667-3.79392-0.87893333-5.50400114-3.35189333-0.50517333-0.73130667-0.85930667-1.53514667-1.1264-2.37994667-1.8304-1.85685333-3.53024-3.84853333-4.78976-6.10304-0.72277333-0.42069333-1.27573333-0.91989333-1.72373334-1.5872z m262.97515235 209.92939235c0.75178667 0.76373333 1.5232 1.50528 2.29546781 2.23402667a5.83424 5.83424 0 0 0 2.35434666 1.36533333c-1.67936-1.64778667-3.33226667-3.32629333-4.9937078-4.99370667 0.09898667 0.47189333 0.20138667 0.94293333 0.34389333 1.39434667z m4.64981447 3.59850667c0.39424 0.38741333 0.79189333 0.77141333 1.19125334 1.15370666-0.02901333-0.30976-0.05461333-0.62378667-0.08277334-0.93525333a6.16277333 6.16277333 0 0 1-1.10933333-0.21845333z m1.19125334 1.15370666c0.01621333 0.16384 0.02730667 0.3328 0.04352 0.49664 0.01877333 0.19114667 0.29781333 0.35072 0.74496 0.48298667 0.07594667-0.00341333 0.15104-0.00597333 0.22698666-0.0128-0.34133333-0.31914667-0.67754667-0.64426667-1.01546666-0.96682667z m266.58645902-182.82667122v0.01792c-0.03413333 0-0.06741333 0.08533333-0.09728 0.11861334h0.34474666c-0.08533333-0.08533333-0.16384-0.09386667-0.24661333-0.13653334z m4.736 9.19125334c0.17834667 0.23808 0.32768 0.42496 0.512 0.67413333-0.00170667-0.0768 0.00170667-0.1536 0-0.22869333-0.08533333-0.0768-0.18090667-0.13226667-0.26624-0.20736-0.09130667-0.08448-0.15616-0.15872-0.24661334-0.23808z m-118.67050894 35.02080114l-0.5504 0.43264 0.12714666 0.05973333c0.14250667-0.16298667 0.2816-0.32938667 0.42325334-0.49322667zM753.07214165 339.33938802l-12.85802781 10.13845333a103.91040227 103.91040227 0 0 1 2.79978781-1.8688c3.36554667-2.74090667 6.74816-5.46218667 10.05824-8.2688z m-586.7929748 57.46688113l-70.26005446 56.43861448 496.37291804 391.37622357a144.68864341 144.68864341 0 0 0 5.1584-5.8112c0.08789333-0.10410667 0.24746667-0.21333333 0.42666666-0.31573333 0.41813333-0.60586667 0.85845333-1.19722667 1.31498667-1.77834781-0.03413333-0.00682667-0.06741333-0.00853333-0.1024-0.01706667-3.39626667-0.76373333 0.06229333-6.21738667 4.92117447-10.88853333a80.10240227 80.10240227 0 0 1 1.7152-2.75882667c2.82453333-4.38954667 17.72885333-10.8928 11.4048-8.73984-1.07776 0.71850667-1.44469333 1.13066667-0.61013333 0.19797334 0.30976-0.11008 0.36608-0.1152 0.61013333-0.19797334 0.90624-0.60586667 2.30912-1.42506667 3.99957334-1.87733333 1.77493333-0.47274667 2.94912-0.77056 4.18986666-1.088 7.57930667-7.98122667 16.20906667-14.86677333 24.97536114-21.55349447a135.35232341 135.35232341 0 0 0-3.44320114-8.22613333c-0.18090667-0.3968 0.74496-0.45056 1.11957448-0.67242667 0.66730667-0.39253333 1.33632-0.78250667 2.00362666-1.17418666-0.18773333-0.82858667-0.36352-1.664-0.53333333-2.49856-0.17408-0.20906667-0.36010667-0.42069333-0.50688-0.61696a11.65482667 11.65482667 0 0 1-1.58293447-1.34826667c-2.54293333 0.03328-5.3504-0.06656-5.89141334-0.11349333a244.90411235 244.90411235 0 0 0-0.06570666-3.56693334z m960.2099439 6.80021334c0.08362667 0.26453333 0.1792 0.53674667 0.25856 0.80213333 0.11605333-0.10581333 0.22698667-0.21333333 0.34474666-0.31744z m3.63178666 4.47146666c-0.06058667 0-0.09216 0.4096-0.01536 0.52138667 0.11776 0.14250667 0.24746667 0.28501333 0.36693334 0.4352-0.11093333-0.31146667-0.19029333-0.64512-0.32682667-0.93013333-0.01109333-0.01706667-0.01706667-0.02730667-0.02474667-0.02645334z m-483.27851918 20.89984114c-0.25344 2.54549333-4.736 1.13322667 3.84682781 2.63509334-0.18176-0.32170667-0.31914667-0.73898667-0.42154667-1.2032l-0.17664-0.128a79.77472227 79.77472227 0 0 0-3.24864114-1.30389334z m7.88650781 6.97685334l0.04864 0.19968c0.04266667 0.03754667 0.08192 0.07509333 0.12629333 0.11093333l0.17066667-0.04864c-0.11434667-0.08874667-0.2304-0.17493333-0.3456-0.26197333z m0.34474667 0.26112c0.14762667 0.1152 0.2944 0.2304 0.44032 0.34730666 0.24746667 0.06144 0.4096 0.09472 0.64853333 0.1536a44.27008114 44.27008114 0 0 1-0.75861333-0.59733333c-0.11093333 0.03584-0.22016 0.06485333-0.33024 0.09728z m0.44032 0.34730666l-0.17834667-0.04266666c-0.11861333-0.02901333-0.27392-0.13226667-0.43178667-0.256l-0.09472 0.02816c0.11605333 0.46506667 0.24832 0.9216 0.38485334 1.37728 0.31573333-0.1792 0.62549333-0.38229333 0.93184-0.61184-0.20224-0.16810667-0.40704-0.33109333-0.61184-0.49493334z m5.61322666 4.68138667c-0.11434667 0.02730667-0.23296 0.0512-0.34986666 0.0768 0.14848 0.31232 0.30378667 0.52736 0.34133333 0.30122667a1.4336 1.4336 0 0 0 0.00853333-0.37802667z m4.75221334 1.35509333c0.21418667 0.35498667 0.44288 0.70229333 0.68266666 1.04106667 0.50773333 0.09557333 1.05557333 0.19541333 1.31413334 0.2304-0.13312-0.16810667-0.26282667-0.32597333-0.40533334-0.50346667-0.39850667-0.192-0.97024-0.46677333-1.59146666-0.768z m-49.22368114 73.95328228c-0.36693333 0.6272-0.67754667 1.22112-0.91648 1.70325333l0.08618666 0.06826667c0.30378667-0.57429333 0.57514667-1.16906667 0.83029334-1.77152z m62.7703478 241.96267236c0.19029333 0.13909333 0.38058667 0.27733333 0.56917334 0.41898666 0.64256 0.02133333 1.12213333 0.05461333 1.32266666 0.09984a63.24736114 63.24736114 0 0 0-1.89184-0.51797333z m117.06027008 1.15712a97.05472227 97.05472227 0 0 0-1.75104 3.40992l1.93024-1.52149334c-0.05802667-0.5888-0.11264-1.08970667-0.1792-1.88842666z m-114.41749674 0.79701333c0.33109333 0.23978667 0.65877333 0.48725333 0.9984 0.71168 0.33877333 0.22357333-0.66133333-0.4736-0.99157334-0.70997333-0.00256 0-0.00426667-0.00085333-0.00682666-0.00256z m16.00512113 64.66560113a0.49237333 0.49237333 0 0 0 0.03498667 0.20053334l0.11349333-0.12970667-0.14848-0.07168z m-49.0282678 43.05578781c-4.24192 0.87893333-8.58538667 1.48394667-12.78208114 2.48832-1.30474667 0.68096-2.30058667 1.29024-3.99445333 2.13333333l-0.51712 0.31829334c-0.05290667 0.10837333-0.10410667 0.21589333-0.15786667 0.32426666 5.39306667-2.18026667 12.77269333-1.8688 17.45152114-5.26421333z m-17.45152114 5.26336c-0.18602667 0.07509333-0.36864 0.15530667-0.5504 0.23637333-0.16384 0.43861333-0.27306667 0.75093333-0.39509333 1.09568l0.17322666 0.13653334c0.26282667-0.4864 0.5248-0.9728 0.77226667-1.46773334z m-0.5504 0.23637333l0.05888-0.15616-1.1136 0.68864c0.34133333-0.192 0.6912-0.36864 1.05472-0.53248z m0.05888-0.15616l0.64938667-0.40362666 0.04693333-0.09472c-0.19541333 0.09472-0.40789333 0.19626667-0.62293333 0.29866666-0.02816 0.07338667-0.04608 0.12544-0.07338667 0.19968z" fill="#1296db" p-id="2607"></path></svg>