<svg t="1755163016403" class="icon" viewBox="0 0 1024 1024" version="1.1" xmlns="http://www.w3.org/2000/svg" p-id="1588" width="200" height="200"><path d="M192 0h640a128 128 0 0 1 128 128v780.608a64 64 0 0 1-88.832 59.008l-331.136-139.52a64 64 0 0 0-49.344-0.064L152.512 968.32A64 64 0 0 1 64 909.184V128a128 128 0 0 1 128-128z m320 614.4l144.576 71.04a25.6 25.6 0 0 0 36.608-26.56l-22.912-159.488L782.528 384a25.6 25.6 0 0 0-14.016-43.072l-158.72-27.52-75.136-142.4a25.6 25.6 0 0 0-45.312 0L414.208 313.408l-158.72 27.456a25.6 25.6 0 0 0-14.016 43.072l112.256 115.456-22.912 159.488a25.6 25.6 0 0 0 36.608 26.624L512 614.4z" fill="#FF5500" p-id="1589"></path></svg>