<svg t="1755140810783" class="icon" viewBox="0 0 1024 1024" version="1.1" xmlns="http://www.w3.org/2000/svg" p-id="1203" width="200" height="200"><path d="M512 0c283.306667 0 512 228.693333 512 512s-228.693333 512-512 512S0 795.306667 0 512 228.693333 0 512 0zM424.106667 630.613333c6.826667 0 12.8-0.853333 20.48-0.853333-3.413333-13.653333-6.826667-29.013333-6.826667-44.373333 0-93.866667 80.213333-170.666667 182.613333-170.666667 6.826667 0 13.653333 0 20.48 0.853333C622.08 329.386667 529.066667 264.533333 424.106667 264.533333c-118.613333 0-215.04 80.213333-215.04 182.613334 0 59.733333 31.573333 108.373333 85.333333 145.066666L273.066667 656.213333l75.093333-37.546666c28.16 5.973333 49.493333 11.946667 75.946667 11.946666z m314.88 75.093334c43.52-32.426667 75.093333-75.093333 75.093333-122.88 0-85.333333-85.333333-155.306667-182.613333-155.306667-102.4 0-182.613333 69.973333-182.613334 155.306667S529.066667 738.133333 631.466667 738.133333c21.333333 0 42.666667-5.973333 64-11.093333l58.88 32.426667-15.36-53.76zM319.146667 385.706667c0-18.773333 15.36-33.28 33.28-33.28 18.773333 0 33.28 15.36 33.28 33.28s-15.36 33.28-33.28 33.28c-17.92 0-33.28-15.36-33.28-33.28z m150.186666-0.853334c0-18.773333 15.36-33.28 33.28-33.28s33.28 15.36 33.28 33.28c0 18.773333-15.36 33.28-33.28 33.28S469.333333 402.773333 469.333333 384.853333z m83.626667 149.333334c0-12.8 10.24-23.04 23.04-23.04 12.8 0 23.04 10.24 23.04 23.04 0 12.8-10.24 23.04-23.04 23.04-12.8 0-23.04-10.24-23.04-23.04z m118.613333 1.706666c0-12.8 10.24-23.04 23.04-23.04 12.8 0 23.04 10.24 23.04 23.04s-10.24 23.04-23.04 23.04c-12.8 0.853333-23.04-10.24-23.04-23.04z" fill="#60D589" p-id="1204"></path></svg>