<svg t="1754967066791" class="icon" viewBox="0 0 1024 1024" version="1.1" xmlns="http://www.w3.org/2000/svg" p-id="1173" width="200" height="200"><path d="M0 0h1024v1024H0z" fill="#02BFBF" p-id="1174"></path><path d="M448 576m32 0l149.333 0q32 0 32 32l0 0q0 32-32 32l-149.333 0q-32 0-32-32l0 0q0-32 32-32Z" fill="#02BFBF" p-id="1175"></path><path d="M318.571 386.066c10.348-12.94 29.227-15.04 42.166-4.692 12.94 10.348 15.04 29.227 4.692 42.166l-70.015 87.545 70.015 87.546c10.245 12.81 8.289 31.44-4.306 41.853l-0.385 0.313c-12.94 10.349-31.819 8.248-42.167-4.691l-85-106.283c-8.762-10.956-8.762-26.52 0-37.475l85-106.282z m386.858 250.04c-10.348 12.939-29.227 15.04-42.166 4.692-12.94-10.349-15.04-29.227-4.692-42.167l70.015-87.545-70.015-87.546c-10.245-12.81-8.288-31.44 4.307-41.853l0.385-0.313c12.939-10.348 31.818-8.248 42.166 4.692l85 106.282c8.762 10.956 8.762 26.52 0 37.475l-85 106.283z m-121.67-381.152c15.972 4.405 25.35 20.923 20.945 36.895L478.898 748.1c-4.405 15.973-20.924 25.35-36.896 20.947-15.973-4.405-25.35-20.923-20.946-36.895L546.863 275.9c4.404-15.973 20.923-25.35 36.895-20.947z" fill="#FFFFFF" p-id="1176"></path></svg>