<svg t="1762151711226" class="icon" viewBox="0 0 1024 1024" version="1.1" xmlns="http://www.w3.org/2000/svg" p-id="1462" width="200" height="200"><path d="M570.7776 550.5536l149.0944-151.04a64 64 0 1 0-30.5664-29.7984l-147.6096 149.5552a64 64 0 0 0-89.7024 34.4576l-111.36-8.5504a64 64 0 1 0-8.192 42.1376l118.8864 9.1648a64 64 0 1 0 119.4496-45.9264zM512 1024C229.2224 1024 0 794.7776 0 512S229.2224 0 512 0s512 229.2224 512 512-229.2224 512-512 512z m0-42.6496A469.3504 469.3504 0 1 0 512 42.6496a469.3504 469.3504 0 0 0 0 938.7008z m0-42.7008a426.6496 426.6496 0 1 1 0-853.2992 426.6496 426.6496 0 1 1 0 853.2992z" fill="#FF7702" p-id="1463"></path></svg>