<?xml version="1.0" standalone="no"?><!DOCTYPE svg PUBLIC "-//W3C//DTD SVG 1.1//EN" "http://www.w3.org/Graphics/SVG/1.1/DTD/svg11.dtd"><svg t="1735901468033" class="icon" viewBox="0 0 1024 1024" version="1.1" xmlns="http://www.w3.org/2000/svg" p-id="1141" xmlns:xlink="http://www.w3.org/1999/xlink" width="256" height="256"><path d="M365.97608334 42.76451556L108.58951111 108.73742222A60.6814811 60.6814811 0 0 0 62.95703666 167.5256411v730.55649224c0 5.09724445 0.63108779 10.14594333 1.89326222 15.04900778l1.11654002 3.83506888a60.6814811 60.6814811 0 0 0 72.72068665 39.90414222l236.60923335-60.60866333 266.27033998 68.35162112a36.40888889 36.40888889 0 0 0 18.10735445 0l257.09530112-65.97290667a60.6814811 60.6814811 0 0 0 45.58392889-58.78822001V109.34423666a60.6814811 60.6814811 0 0 0-1.91753557-15.09755221l-1.11653888-3.81079666a60.6814811 60.6814811 0 0 0-72.74496-39.85559779l-235.80823666 60.53584668-266.70724778-68.32734891a36.40888889 36.40888889 0 0 0-18.08308111 0z m9.05367666 72.84204999l266.73152 68.35162112 3.59234333 0.72817778c4.80597333 0.72817778 9.75758222 0.48545223 14.49073777-0.72817778l229.69154447-59.00667221v705.48290332l-238.9151289 61.31256889-266.22179555-68.32734777-3.59234446-0.72817778a36.40888889 36.40888889 0 0 0-14.49073778 0.72817778L135.77481443 882.42631112V176.94340779l239.25494557-61.33684224z" fill="#13227a" p-id="1142"></path><path d="M342.09185223 284.34963001a84.95407445 84.95407445 0 0 1 84.83271111 80.29373554L427.04592555 369.30370333v4.44188444a36.40888889 36.40888889 0 0 1-72.64786888 3.49525333l-0.1699089-3.49525333V369.30370333a12.13629667 12.13629667 0 0 0-9.9517622-11.94211556L342.09185223 357.16740779h-48.54518556a12.13629667 12.13629667 0 0 0-11.94211556 9.95176221L281.41036999 369.30370333v291.27111111a12.13629667 12.13629667 0 0 0 9.95176334 11.94211556l2.18453334 0.19418112h48.54518556a12.13629667 12.13629667 0 0 0 11.94211556-9.95176335L354.22814777 660.57481444v-109.22666667h-7.64586667a36.40888889 36.40888889 0 0 1-36.26325333-32.91363555L310.17339221 514.93925888a36.40888889 36.40888889 0 0 1 32.88936334-36.23897998l3.51952555-0.1699089H390.63703666a36.40888889 36.40888889 0 0 1 36.23898112 32.91363555L427.04592555 514.93925888v145.63555556a84.95407445 84.95407445 0 0 1-80.29373554 84.83271111L342.09185223 745.52888889h-48.54518556a84.95407445 84.95407445 0 0 1-84.83271112-80.29373667L208.59259221 660.57481444V369.30370333a84.95407445 84.95407445 0 0 1 80.29373668-84.83271111L293.54666667 284.34963001h48.54518556z m183.40370887 0a36.40888889 36.40888889 0 0 1 36.23898112 32.91363556l0.16990777 3.49525333v388.3614811a36.40888889 36.40888889 0 0 1-72.67214222 3.49525334L489.08667221 709.12V320.7585189a36.40888889 36.40888889 0 0 1 36.40888889-36.40888889z m191.46221113 0a84.95407445 84.95407445 0 0 1 84.83271111 80.29373554l0.12136221 5.09724445a36.40888889 36.40888889 0 0 1-72.64786888 3.49525333L729.09406777 369.30370333a12.13629667 12.13629667 0 0 0-9.9517622-11.94211556l-2.18453334-0.19417998h-24.27259335a12.13629667 12.13629667 0 0 0-11.91784221 9.95176221l-0.21845333 2.18453333v97.09037113a12.13629667 12.13629667 0 0 0 9.95176221 11.94211555l2.18453333 0.19417999h24.27259335a84.95407445 84.95407445 0 0 1 84.83271111 80.29373667l0.12136221 4.66033778v97.09036999a84.95407445 84.95407445 0 0 1-80.29373554 84.83271111l-4.66033778 0.12136334h-24.27259335a84.95407445 84.95407445 0 0 1-84.80843776-80.29373667L607.73110557 660.57481444v-9.87894443a36.40888889 36.40888889 0 0 1 72.67214222-3.49525333l0.14563555 3.49525333V660.57481444a12.13629667 12.13629667 0 0 0 9.95176221 11.94211556l2.18453333 0.19418112h24.27259335a12.13629667 12.13629667 0 0 0 11.94211556-9.95176335l0.19417998-2.18453333v-97.09036999a12.13629667 12.13629667 0 0 0-9.9517622-11.94211556l-2.18453334-0.19418112h-24.27259335a84.95407445 84.95407445 0 0 1-84.80843776-80.29373553L607.73110557 466.39407446v-97.09037113a84.95407445 84.95407445 0 0 1 80.29373553-84.83271111l4.66033778-0.12136221h24.27259335z" fill="#13227a" p-id="1143"></path></svg>