<?xml version="1.0" standalone="no"?><!DOCTYPE svg PUBLIC "-//W3C//DTD SVG 1.1//EN" "http://www.w3.org/Graphics/SVG/1.1/DTD/svg11.dtd"><svg t="1735901762528" class="icon" viewBox="0 0 1024 1024" version="1.1" xmlns="http://www.w3.org/2000/svg" p-id="1013" xmlns:xlink="http://www.w3.org/1999/xlink" width="256" height="256"><path d="M407.86758978 457.85114672l109.33903072 425.90155775 415.4883168-425.90155775z" fill="#7DD6EA" p-id="1014"></path><path d="M1003.50497625 404.74361748H401.61964517c-11.45456514 0-19.78515794-9.37191692-19.78515795-19.78515793 0-11.45456514 9.37191692-19.78515794 19.78515795-19.78515795h548.77780185l-239.50454347-214.51276507H313.10709645l-239.50454347 214.51276507h164.52920813c11.45456514 0 19.78515794 9.37191692 19.78515796 19.78515795 0 11.45456514-9.37191692 19.78515794-19.78515796 19.78515793H20.49502375c-8.33059282 0-15.61986151-5.2066205-18.74383386-13.53721335-3.1239723-8.33059282-1.0413241-16.66118561 5.20662051-21.86780614l284.28147994-255.12440504c4.16529643-3.1239723 8.33059282-5.2066205 13.53721332-5.20662052h413.40566857c5.2066205 0 9.37191692 2.08264821 13.53721335 5.20662052l284.28147989 255.12440504c6.24794461 5.2066205 8.33059282 14.57853743 5.20662051 21.86780614-2.08264821 8.33059282-9.37191692 13.53721332-17.70250973 13.53721335z" fill="#256782" p-id="1015"></path><path d="M512 914.99242757c-5.2066205 0-10.41324101-2.08264821-14.57853743-6.24794462-5.2066205-5.2066205-469.6371701-488.38100394-490.46365217-510.2488101-8.33059282-8.33059282-8.33059282-20.82648205 0-29.15707486 8.33059282-8.33059282 20.82648205-8.33059282 29.1570749 0 19.78515794 19.78515794 395.70315886 411.32302039 476.9264388 495.67027264l476.92643882-494.62894852c7.2892687-8.33059282 20.82648205-8.33059282 29.15707486-1.04132412 8.33059282 7.2892687 8.33059282 20.82648205 1.04132412 29.15707486l-491.50497629 510.2488101c-6.24794461 4.16529643-11.45456514 6.24794461-16.66118561 6.24794462z" fill="#256782" p-id="1016"></path><path d="M512 914.99242757c-7.2892687 0-14.57853743-4.16529643-17.70250974-10.41324102l-276.99221119-510.24881009c-2.08264821-4.16529643-3.1239723-10.41324101-2.08264821-14.57853742l70.81003896-255.12440509c3.1239723-10.41324101 14.57853743-16.66118561 24.99177846-14.57853744 10.41324101 3.1239723 16.66118561 14.57853743 14.57853742 24.99177848l-68.72739075 246.79381223 273.86823887 502.95954138c5.2066205 9.37191692 2.08264821 21.86780614-8.33059281 27.07442665-4.16529643 2.08264821-7.2892687 3.1239723-10.41324101 3.12397232z" fill="#256782" p-id="1017"></path><path d="M512 914.99242757c-3.1239723 0-6.24794461-1.0413241-9.37191692-2.08264821-9.37191692-5.2066205-13.53721332-17.70250974-8.33059282-27.07442665l273.86823887-502.95954138-68.72739073-247.83513634c-3.1239723-10.41324101 3.1239723-21.86780614 14.57853743-24.99177848 10.41324101-3.1239723 21.86780614 3.1239723 24.99177846 14.57853744l70.81003895 255.12440509c1.0413241 5.2066205 1.0413241 10.41324101-2.08264821 14.57853742l-276.99221121 510.24881009c-4.16529643 6.24794461-11.45456514 10.41324101-18.74383382 10.41324102z" fill="#256782" p-id="1018"></path></svg>