<?xml version="1.0" standalone="no"?><!DOCTYPE svg PUBLIC "-//W3C//DTD SVG 1.1//EN" "http://www.w3.org/Graphics/SVG/1.1/DTD/svg11.dtd"><svg t="1735901463668" class="icon" viewBox="0 0 1024 1024" version="1.1" xmlns="http://www.w3.org/2000/svg" p-id="979" xmlns:xlink="http://www.w3.org/1999/xlink" width="256" height="256"><path d="M621.15207851 404.88601941c-7.03117767-7.02884978-14.52574493-13.36494307-22.248514-19.23997582l-0.0139719 0.01280683c-7.94864185-7.64476075-18.7416576-12.35317077-30.64075264-12.35317077-24.42225323 0-44.21876167 19.79767353-44.21876168 44.21876166 0 10.80582258 3.88175986 20.70349483 10.32147513 28.3843493l-0.00116395 0c0.00116395 0.00116395 0.00349298 0.00349298 0.00582202 0.00465693 3.09353245 3.68965063 6.77386809 6.87050525 10.90595157 9.38887509 4.16934002 3.43816306 8.26183794 6.82393373 12.08887523 10.65097102l3.64540814 3.64657209c45.82898233 45.77193187 32.14735019 124.63196387-13.681631 170.46211015L351.75283257 835.56574549c-45.82781725 45.77193187-120.33338709 45.77193187-166.16353223 0l-3.67451477-3.6768438c-45.83131022-45.82781725-45.83131022-120.38810851 0-166.10531783l86.39767893-86.36857117c11.08525283-8.79857778 18.20142478-22.3789147 18.20142478-37.62885176 0-26.5249701-21.50220117-48.02717127-48.02717127-48.02717128-10.00944413 0-19.30051925 3.06442467-26.99418055 8.30258859-0.02444971-0.05122845-0.0500645-0.10012899-0.07567929-0.15252253l-0.92095716 0.86157882c-3.40090539 2.44501959-6.47580899 5.31267811-9.13156664 8.54476117l-89.7857775 84.01553067c-84.39858403 84.45679843-84.39858403 222.58643513 0 306.92563968l3.64540814 3.64424305c84.39858403 84.34036963 222.46884125 84.34036963 306.86742528 0l195.50376846-195.56198286c84.2821541-84.39392711 91.42859776-217.52524459 7.14760762-301.86561422L621.15207851 404.88601941z" fill="#1296db" p-id="980"></path><path d="M902.96271075 118.10617685l-3.64540814-3.64540814c-84.39742009-84.39858403-222.4676773-84.39858403-306.86626133 0L396.94727395 310.02158763c-84.39858403 84.39858403-89.04644949 206.27466126-4.64786545 290.72796786l3.5871926 3.53247118c3.83285931 3.83169536 7.81125518 7.44450275 11.87231631 10.90944455 2.93984483 3.2833115 6.39314375 6.09392071 10.23182506 8.31655936 0.02910777 0.02328576 0.05937949 0.04773661 0.08848612 0.07102236l0.01280682-0.01164288c6.11837042 3.51849927 13.20776363 5.54204501 20.77335211 5.54204501 23.05537024 0 41.74463431-18.6915931 41.74463431-41.7446343 0-6.50724466-1.49029774-12.66636573-4.14721934-18.15718116l0 0c-5.51875811-12.39159239-15.84954823-19.93506019-22.99482681-27.08150272l-3.58835769-3.53014215c-45.82781725-45.82781725-28.42509995-112.40802987 17.40271844-158.23584825l195.61903331-195.50493241c45.71488142-45.83014627 120.24606493-45.83014627 166.07621007 0l3.64773603 3.58719261c45.82898233 45.83131022 45.82898233 120.42070813 0 166.19264l-86.11475456 86.17297009c-11.71513685 8.67981995-19.31216213 22.60245959-19.31216213 38.30065039 0 26.30957511 21.32872078 47.63946098 47.63946098 47.63946097 9.1571803 0 17.70776349-2.58939221 24.96830691-7.06727139 0.05472142 0.09314304 0.10595101 0.17930126 0.16067243 0.27360938l1.33544618-1.23298816c4.11461859-2.75472157 7.76934059-6.13699925 10.84191517-10.00362325l90.75679915-83.74425031C987.36129479 340.57618205 987.36129479 202.50359581 902.96271075 118.10617685z" fill="#1296db" p-id="981"></path></svg>