<?xml version="1.0" standalone="no"?><!DOCTYPE svg PUBLIC "-//W3C//DTD SVG 1.1//EN" "http://www.w3.org/Graphics/SVG/1.1/DTD/svg11.dtd"><svg t="1736146523939" class="icon" viewBox="0 0 1024 1024" version="1.1" xmlns="http://www.w3.org/2000/svg" p-id="1286" xmlns:xlink="http://www.w3.org/1999/xlink" width="256" height="256"><path d="M795.1570603 700.52638169L583.06580146 700.52638169c-13.01746261 0-23.56635005-10.54741455-23.56635006-23.56635005l0-47.1312272c0-13.01304391 10.55330613-23.56635005 23.56635006-23.56635005l141.39515449 0c39.04355043 0 70.69757725-31.64813521 70.69757724-70.69757724L795.15853319 488.43364995c0-39.04355043-31.65402679-70.69757725-70.69757724-70.69757725l-141.39515449 0c-13.01304391 0-23.56635005-10.55330613-23.56635006-23.56045844l0-47.1356459c0-13.01304391 10.55330613-23.56635005 23.56635006-23.56635005l212.09273173 0c52.05659436 0 94.26245439 42.20144134 94.26245439 94.26245439l0 188.52638169C889.42098758 658.32494033 847.21512755 700.52638169 795.1570603 700.52638169zM323.84184253 535.56635005L323.84184253 488.43364995c0-13.01304391 10.54741455-23.56635005 23.56635006-23.56635005l329.92153616 0c13.01304391 0 23.56635005 10.55330613 23.56635007 23.56635005L700.89607882 535.56635005c0 13.01746261-10.54741455 23.56635005-23.56635007 23.56635005L347.40819259 559.1327001C334.38925708 559.13122719 323.84184253 548.58381266 323.84184253 535.56635005zM441.67064698 417.73754561l-141.39515449 0c-39.04355043 0-70.69757725 31.65402679-70.69757725 70.69757724L229.57791524 535.56635005c0 39.04796913 31.65402679 70.69757725 70.69757725 70.69757725l141.39515449 0c13.01304391 0 23.56635005 10.55330613 23.56635004 23.56635004l0 47.13122718c0 13.01746261-10.54741455 23.56635005-23.56635004 23.56635006L229.57938814 700.52785458c-52.05659436 0-94.26245439-42.20144134-94.26245438-94.26245439L135.31693376 417.73754561c0-52.06101305 42.20586003-94.26245439 94.26245438-94.2624544l212.09273173 0c13.01304391 0 23.56635005 10.55330613 23.56635005 23.56635005l0 47.13564589C465.23699702 407.18423948 454.68369089 417.73754561 441.67064698 417.73754561z" fill="#1296db" p-id="1287"></path></svg>